<?xml version="1.0" encoding="UTF-8" standalone="no"?>
<svg
   width="71"
   height="71"
   viewBox="0 0 71 71"
   fill="none"
   version="1.1"
   id="svg1"
   sodipodi:docname="icon-green.svg"
   inkscape:version="1.4 (86a8ad7, 2024-10-11)"
   xmlns:inkscape="http://www.inkscape.org/namespaces/inkscape"
   xmlns:sodipodi="http://sodipodi.sourceforge.net/DTD/sodipodi-0.dtd"
   xmlns="http://www.w3.org/2000/svg"
   xmlns:svg="http://www.w3.org/2000/svg">
  <defs
     id="defs1" />
  <sodipodi:namedview
     id="namedview1"
     pagecolor="#505050"
     bordercolor="#eeeeee"
     borderopacity="1"
     inkscape:showpageshadow="0"
     inkscape:pageopacity="0"
     inkscape:pagecheckerboard="0"
     inkscape:deskcolor="#505050"
     inkscape:zoom="15.957746"
     inkscape:cx="35.531333"
     inkscape:cy="35.5"
     inkscape:window-width="2560"
     inkscape:window-height="1351"
     inkscape:window-x="2551"
     inkscape:window-y="-9"
     inkscape:window-maximized="1"
     inkscape:current-layer="svg1" />
  <circle
     cx="35.5"
     cy="35.5"
     r="35.5"
     fill="white"
     id="circle1"
     style="fill:#2f8344;fill-opacity:1" />
  <path
     d="m 55.1875,27.0625 c 0,-1.8648 -0.7408,-3.6532 -2.0594,-4.9718 -1.3186,-1.3187 -3.107,-2.0595 -4.9718,-2.0595 H 21.4375 c -1.6146,0.001 -3.1796,0.5577 -4.4323,1.5764 -1.2526,1.0188 -2.1164,2.4376 -2.4463,4.0182 -0.3299,1.5805 -0.1058,3.2264 0.6346,4.6612 0.7405,1.4348 1.9521,2.5711 3.4315,3.2179 v 14.6513 c 0,0.746 0.2963,1.4613 0.8238,1.9888 0.5274,0.5274 1.2428,0.8238 1.9887,0.8238 h 26.7188 c 0.7459,0 1.4613,-0.2964 1.9887,-0.8238 0.5275,-0.5275 0.8238,-1.2428 0.8238,-1.9888 V 33.5049 c 1.2528,-0.5482 2.3188,-1.4494 3.068,-2.5934 0.7492,-1.1441 1.149,-2.4815 1.1507,-3.849 z m -33.75,7.0313 c 0.373,0 0.7307,-0.1482 0.9944,-0.4119 0.2637,-0.2638 0.4119,-0.6214 0.4119,-0.9944 0,-0.373 -0.1482,-0.7306 -0.4119,-0.9944 -0.2637,-0.2637 -0.6214,-0.4119 -0.9944,-0.4119 -1.1189,0 -2.1919,-0.4444 -2.9831,-1.2356 -0.7912,-0.7912 -1.2356,-1.8642 -1.2356,-2.9831 0,-1.1189 0.4444,-2.1919 1.2356,-2.9831 0.7912,-0.7912 1.8642,-1.2356 2.9831,-1.2356 h 16.875 c 1.1189,0 2.192,0.4444 2.9831,1.2356 0.7912,0.7912 1.2357,1.8642 1.2357,2.9831 0,1.1189 -0.4445,2.1919 -1.2357,2.9831 -0.7911,0.7912 -1.8642,1.2356 -2.9831,1.2356 -0.3729,0 -0.7306,0.1482 -0.9944,0.4119 -0.2637,0.2638 -0.4118,0.6214 -0.4118,0.9944 0,0.373 0.1481,0.7306 0.4118,0.9944 0.2638,0.2637 0.6215,0.4119 0.9944,0.4119 v 14.0624 h -16.875 z m 26.7188,-2.8126 c -0.373,0 -0.7307,0.1482 -0.9944,0.4119 -0.2637,0.2638 -0.4119,0.6214 -0.4119,0.9944 0,0.373 0.1482,0.7306 0.4119,0.9944 0.2637,0.2637 0.6214,0.4119 0.9944,0.4119 V 48.1562 H 41.125 V 33.5049 c 0.972,-0.4244 1.8353,-1.0632 2.5255,-1.8685 0.6901,-0.8053 1.1891,-1.7563 1.4596,-2.7818 0.2705,-1.0254 0.3056,-2.0988 0.1025,-3.1398 -0.203,-1.0409 -0.639,-2.0224 -1.2751,-2.871 h 4.2188 c 1.1189,0 2.1919,0.4444 2.9831,1.2356 0.7911,0.7912 1.2356,1.8642 1.2356,2.9831 0,1.1189 -0.4445,2.1919 -1.2356,2.9831 -0.7912,0.7912 -1.8642,1.2356 -2.9831,1.2356 z"
     fill="#343330"
     id="path1"
     style="fill:#ffffff;fill-opacity:1"
     sodipodi:nodetypes="ccscccccsssssscccccscsssssscscscscccccscscccccccccscscs" />
</svg>
